<?xml version="1.0" encoding="utf-8"?>
<svg width="800px" height="800px" viewBox="0 0 24 24" fill="none" xmlns="http://www.w3.org/2000/svg">
  <path d="M 3 9 L 21 9 M 7 3 L 7 5 M 17 3 L 17 5 M 6.2 21 L 17.8 21 C 18.92 21 19.48 21 19.908 20.782 C 20.284 20.59 20.59 20.284 20.782 19.908 C 21 19.48 21 18.92 21 17.8 L 21 8.2 C 21 7.08 21 6.52 20.782 6.092 C 20.59 5.716 20.284 5.41 19.908 5.218 C 19.48 5 18.92 5 17.8 5 L 6.2 5 C 5.08 5 4.52 5 4.092 5.218 C 3.716 5.41 3.41 5.716 3.218 6.092 C 3 6.52 3 7.08 3 8.2 L 3 17.8 C 3 18.92 3 19.48 3.218 19.908 C 3.41 20.284 3.716 20.59 4.092 20.782 C 4.52 21 5.08 21 6.2 21 Z" stroke="#000000" stroke-width="1.5" stroke-linecap="round" stroke-linejoin="round"/>
  <path d="M 10.865 11.745 C 10.605 11.65 10.358 11.559 9.976 11.559 C 9.166 11.559 8.761 12.369 8.761 13.381 C 8.761 14.029 8.926 14.427 9.099 14.843 C 9.196 15.077 9.295 15.316 9.368 15.608 C 9.429 15.849 9.453 16.199 9.479 16.57 C 9.54 17.444 9.61 18.442 10.178 18.442 C 10.542 18.442 10.701 17.87 10.877 17.239 C 11.092 16.467 11.331 15.608 12 15.608 C 12.668 15.608 12.908 16.467 13.123 17.239 C 13.298 17.87 13.458 18.442 13.822 18.442 C 14.39 18.442 14.46 17.444 14.521 16.57 C 14.546 16.199 14.571 15.849 14.632 15.608 C 14.704 15.316 14.804 15.077 14.901 14.843 C 15.073 14.427 15.239 14.029 15.239 13.381 C 15.239 12.369 14.834 11.559 14.024 11.559 C 13.642 11.559 13.395 11.65 13.134 11.745 C 12.843 11.852 12.534 11.964 12 11.964 C 11.465 11.964 11.157 11.852 10.865 11.745 Z" stroke="#000000" stroke-width="1.5" stroke-linecap="round" stroke-linejoin="round" style="stroke-width: 1;"/>
</svg>